<mxfile host="app.diagrams.net" agent="Mozilla/5.0 (Macintosh; Intel Mac OS X 10_15_7) AppleWebKit/537.36 (KHTML, like Gecko) Chrome/130.0.0.0 Safari/537.36" version="24.8.4">
  <diagram name="Page-1" id="YJ1gJco4E9joKAYn7xAS">
    <mxGraphModel dx="1807" dy="1155" grid="1" gridSize="10" guides="1" tooltips="1" connect="1" arrows="1" fold="1" page="1" pageScale="1" pageWidth="1169" pageHeight="827" math="0" shadow="0">
      <root>
        <mxCell id="0" />
        <mxCell id="1" parent="0" />
        <mxCell id="ZzBclUYQci2NFeaBZxFk-1" value="&lt;font color=&quot;#3cd184&quot; face=&quot;Courier New&quot; style=&quot;font-size: 20px;&quot;&gt;Battery Voltage&lt;br&gt;&lt;/font&gt;&lt;div style=&quot;font-size: 20px;&quot;&gt;&lt;font color=&quot;#3cd184&quot; style=&quot;font-size: 20px;&quot;&gt;&lt;span style=&quot;background-color: initial;&quot;&gt;&lt;font style=&quot;font-size: 20px;&quot; face=&quot;Courier New&quot;&gt;≤&lt;/font&gt;&lt;/span&gt;&lt;font face=&quot;Courier New&quot; style=&quot;font-size: 20px;&quot;&gt;3.3 V&lt;/font&gt;&lt;/font&gt;&lt;/div&gt;" style="rounded=1;whiteSpace=wrap;html=1;strokeColor=#3CD184;" parent="1" vertex="1">
          <mxGeometry x="140" y="40" width="120" height="80" as="geometry" />
        </mxCell>
        <mxCell id="ZzBclUYQci2NFeaBZxFk-15" value="&lt;font color=&quot;#f97171&quot; face=&quot;Courier New&quot; style=&quot;font-size: 20px;&quot;&gt;&lt;b style=&quot;&quot;&gt;Power&lt;/b&gt;&lt;/font&gt;&lt;div&gt;&lt;span style=&quot;font-size: 20px; font-family: &amp;quot;Courier New&amp;quot;; background-color: initial;&quot;&gt;&lt;b&gt;&lt;font color=&quot;#f97171&quot;&gt;Mode&lt;/font&gt;&lt;/b&gt;&lt;/span&gt;&lt;div style=&quot;font-size: 20px;&quot;&gt;&lt;font color=&quot;#f97171&quot; face=&quot;Courier New&quot;&gt;&lt;b style=&quot;&quot;&gt;0&lt;/b&gt;&lt;/font&gt;&lt;/div&gt;&lt;/div&gt;" style="whiteSpace=wrap;html=1;aspect=fixed;rounded=1;arcSize=10;strokeColor=#f97171;strokeWidth=2;" parent="1" vertex="1">
          <mxGeometry x="80" y="160" width="80" height="80" as="geometry" />
        </mxCell>
        <mxCell id="ZzBclUYQci2NFeaBZxFk-16" value="&lt;font color=&quot;#f97171&quot; face=&quot;Courier New&quot; style=&quot;font-size: 20px;&quot;&gt;&lt;b style=&quot;&quot;&gt;Power&lt;/b&gt;&lt;/font&gt;&lt;div&gt;&lt;span style=&quot;font-size: 20px; font-family: &amp;quot;Courier New&amp;quot;; background-color: initial;&quot;&gt;&lt;b&gt;&lt;font color=&quot;#f97171&quot;&gt;Mode&lt;/font&gt;&lt;/b&gt;&lt;/span&gt;&lt;div style=&quot;font-size: 20px;&quot;&gt;&lt;font color=&quot;#f97171&quot; face=&quot;Courier New&quot;&gt;&lt;b style=&quot;&quot;&gt;1&lt;/b&gt;&lt;/font&gt;&lt;/div&gt;&lt;/div&gt;" style="whiteSpace=wrap;html=1;aspect=fixed;rounded=1;arcSize=10;strokeColor=#f97171;strokeWidth=2;" parent="1" vertex="1">
          <mxGeometry x="160" y="280" width="80" height="80" as="geometry" />
        </mxCell>
        <mxCell id="ZzBclUYQci2NFeaBZxFk-17" value="&lt;font color=&quot;#3cd184&quot; face=&quot;Courier New&quot; style=&quot;font-size: 20px;&quot;&gt;Battery Voltage&lt;br&gt;&lt;/font&gt;&lt;div style=&quot;font-size: 20px;&quot;&gt;&lt;font color=&quot;#3cd184&quot; style=&quot;font-size: 20px;&quot;&gt;&lt;span style=&quot;background-color: initial;&quot;&gt;&lt;font style=&quot;font-size: 20px;&quot; face=&quot;Courier New&quot;&gt;≤&lt;/font&gt;&lt;/span&gt;&lt;font face=&quot;Courier New&quot; style=&quot;font-size: 20px;&quot;&gt;3.5 V&lt;/font&gt;&lt;/font&gt;&lt;/div&gt;" style="rounded=1;whiteSpace=wrap;html=1;strokeColor=#3CD184;" parent="1" vertex="1">
          <mxGeometry x="220" y="160" width="120" height="80" as="geometry" />
        </mxCell>
        <mxCell id="ZzBclUYQci2NFeaBZxFk-18" value="&lt;font color=&quot;#3cd184&quot; face=&quot;Courier New&quot; style=&quot;font-size: 20px;&quot;&gt;Battery Voltage&lt;br&gt;&lt;/font&gt;&lt;div style=&quot;font-size: 20px;&quot;&gt;&lt;font color=&quot;#3cd184&quot; style=&quot;font-size: 20px;&quot;&gt;&lt;span style=&quot;background-color: initial;&quot;&gt;&lt;font style=&quot;font-size: 20px;&quot; face=&quot;Courier New&quot;&gt;≤&lt;/font&gt;&lt;/span&gt;&lt;font face=&quot;Courier New&quot; style=&quot;font-size: 20px;&quot;&gt;4.0 V&lt;/font&gt;&lt;/font&gt;&lt;/div&gt;" style="rounded=1;whiteSpace=wrap;html=1;strokeColor=#3CD184;" parent="1" vertex="1">
          <mxGeometry x="300" y="280" width="120" height="80" as="geometry" />
        </mxCell>
        <mxCell id="ZzBclUYQci2NFeaBZxFk-19" value="&lt;font color=&quot;#1e81b0&quot; face=&quot;Courier New&quot; style=&quot;font-size: 20px;&quot;&gt;Solar Voltage&lt;br&gt;&lt;/font&gt;&lt;div style=&quot;font-size: 20px;&quot;&gt;&lt;font color=&quot;#1e81b0&quot; style=&quot;font-size: 20px;&quot;&gt;&lt;span style=&quot;background-color: initial;&quot;&gt;&lt;font style=&quot;font-size: 20px;&quot; face=&quot;Courier New&quot;&gt;≤5.0&lt;/font&gt;&lt;/span&gt;&lt;font face=&quot;Courier New&quot; style=&quot;font-size: 20px;&quot;&gt;&amp;nbsp;V&lt;/font&gt;&lt;/font&gt;&lt;/div&gt;" style="rounded=1;whiteSpace=wrap;html=1;strokeColor=#1e81b0;" parent="1" vertex="1">
          <mxGeometry x="160" y="400" width="120" height="80" as="geometry" />
        </mxCell>
        <mxCell id="ZzBclUYQci2NFeaBZxFk-20" value="&lt;font color=&quot;#1e81b0&quot; face=&quot;Courier New&quot; style=&quot;font-size: 20px;&quot;&gt;Solar Voltage&lt;br&gt;&lt;/font&gt;&lt;div style=&quot;font-size: 20px;&quot;&gt;&lt;font color=&quot;#1e81b0&quot; style=&quot;font-size: 20px;&quot;&gt;&lt;span style=&quot;background-color: initial;&quot;&gt;&lt;font style=&quot;font-size: 20px;&quot; face=&quot;Courier New&quot;&gt;≤5&lt;/font&gt;&lt;/span&gt;&lt;font face=&quot;Courier New&quot; style=&quot;font-size: 20px;&quot;&gt;.0 V&lt;/font&gt;&lt;/font&gt;&lt;/div&gt;" style="rounded=1;whiteSpace=wrap;html=1;strokeColor=#1e81b0;" parent="1" vertex="1">
          <mxGeometry x="440" y="400" width="120" height="80" as="geometry" />
        </mxCell>
        <mxCell id="ZzBclUYQci2NFeaBZxFk-21" value="&lt;font color=&quot;#f97171&quot; face=&quot;Courier New&quot; style=&quot;font-size: 20px;&quot;&gt;&lt;b style=&quot;&quot;&gt;Power&lt;/b&gt;&lt;/font&gt;&lt;div&gt;&lt;span style=&quot;font-size: 20px; font-family: &amp;quot;Courier New&amp;quot;; background-color: initial;&quot;&gt;&lt;b&gt;&lt;font color=&quot;#f97171&quot;&gt;Mode&lt;/font&gt;&lt;/b&gt;&lt;/span&gt;&lt;div style=&quot;font-size: 20px;&quot;&gt;&lt;font color=&quot;#f97171&quot; face=&quot;Courier New&quot;&gt;&lt;b style=&quot;&quot;&gt;2&lt;/b&gt;&lt;/font&gt;&lt;/div&gt;&lt;/div&gt;" style="whiteSpace=wrap;html=1;aspect=fixed;rounded=1;arcSize=10;strokeColor=#f97171;strokeWidth=2;" parent="1" vertex="1">
          <mxGeometry x="120" y="520" width="80" height="80" as="geometry" />
        </mxCell>
        <mxCell id="ZzBclUYQci2NFeaBZxFk-22" value="&lt;font color=&quot;#f97171&quot; face=&quot;Courier New&quot; style=&quot;font-size: 20px;&quot;&gt;&lt;b style=&quot;&quot;&gt;Power&lt;/b&gt;&lt;/font&gt;&lt;div&gt;&lt;span style=&quot;font-size: 20px; font-family: &amp;quot;Courier New&amp;quot;; background-color: initial;&quot;&gt;&lt;b&gt;&lt;font color=&quot;#f97171&quot;&gt;Mode&lt;/font&gt;&lt;/b&gt;&lt;/span&gt;&lt;div style=&quot;font-size: 20px;&quot;&gt;&lt;font color=&quot;#f97171&quot; face=&quot;Courier New&quot;&gt;&lt;b style=&quot;&quot;&gt;3&lt;/b&gt;&lt;/font&gt;&lt;/div&gt;&lt;/div&gt;" style="whiteSpace=wrap;html=1;aspect=fixed;rounded=1;arcSize=10;strokeColor=#f97171;strokeWidth=2;" parent="1" vertex="1">
          <mxGeometry x="240" y="520" width="80" height="80" as="geometry" />
        </mxCell>
        <mxCell id="ZzBclUYQci2NFeaBZxFk-23" value="&lt;font color=&quot;#f97171&quot; face=&quot;Courier New&quot; style=&quot;font-size: 20px;&quot;&gt;&lt;b style=&quot;&quot;&gt;Power&lt;/b&gt;&lt;/font&gt;&lt;div&gt;&lt;span style=&quot;font-size: 20px; font-family: &amp;quot;Courier New&amp;quot;; background-color: initial;&quot;&gt;&lt;b&gt;&lt;font color=&quot;#f97171&quot;&gt;Mode&lt;/font&gt;&lt;/b&gt;&lt;/span&gt;&lt;div style=&quot;font-size: 20px;&quot;&gt;&lt;font color=&quot;#f97171&quot; face=&quot;Courier New&quot; style=&quot;font-size: 20px;&quot;&gt;&lt;b style=&quot;&quot;&gt;4&lt;/b&gt;&lt;/font&gt;&lt;/div&gt;&lt;/div&gt;" style="whiteSpace=wrap;html=1;aspect=fixed;rounded=1;arcSize=10;strokeColor=#f97171;strokeWidth=2;" parent="1" vertex="1">
          <mxGeometry x="400" y="520" width="80" height="80" as="geometry" />
        </mxCell>
        <mxCell id="ZzBclUYQci2NFeaBZxFk-24" value="&lt;font color=&quot;#f97171&quot; face=&quot;Courier New&quot; style=&quot;font-size: 20px;&quot;&gt;&lt;b style=&quot;&quot;&gt;Power&lt;/b&gt;&lt;/font&gt;&lt;div&gt;&lt;span style=&quot;font-size: 20px; font-family: &amp;quot;Courier New&amp;quot;; background-color: initial;&quot;&gt;&lt;b&gt;&lt;font color=&quot;#f97171&quot;&gt;Mode&lt;/font&gt;&lt;/b&gt;&lt;/span&gt;&lt;div style=&quot;font-size: 20px;&quot;&gt;&lt;font color=&quot;#f97171&quot; face=&quot;Courier New&quot;&gt;&lt;b style=&quot;&quot;&gt;5&lt;/b&gt;&lt;/font&gt;&lt;/div&gt;&lt;/div&gt;" style="whiteSpace=wrap;html=1;aspect=fixed;rounded=1;arcSize=10;strokeColor=#f97171;strokeWidth=2;" parent="1" vertex="1">
          <mxGeometry x="520" y="520" width="80" height="80" as="geometry" />
        </mxCell>
        <mxCell id="ZzBclUYQci2NFeaBZxFk-25" value="" style="edgeStyle=elbowEdgeStyle;elbow=vertical;endArrow=classic;html=1;curved=0;rounded=1;endSize=8;startSize=8;exitX=0.5;exitY=1;exitDx=0;exitDy=0;entryX=0.5;entryY=0;entryDx=0;entryDy=0;strokeColor=#A6A6A6;strokeWidth=2;" parent="1" source="ZzBclUYQci2NFeaBZxFk-1" target="ZzBclUYQci2NFeaBZxFk-15" edge="1">
          <mxGeometry width="50" height="50" relative="1" as="geometry">
            <mxPoint x="900" y="400" as="sourcePoint" />
            <mxPoint x="950" y="350" as="targetPoint" />
            <Array as="points">
              <mxPoint x="160" y="140" />
            </Array>
          </mxGeometry>
        </mxCell>
        <mxCell id="ZzBclUYQci2NFeaBZxFk-36" value="&lt;font face=&quot;Courier New&quot; style=&quot;font-size: 20px;&quot;&gt;Yes&lt;/font&gt;" style="edgeLabel;html=1;align=center;verticalAlign=middle;resizable=0;points=[];fontColor=#A6A6A6;" parent="ZzBclUYQci2NFeaBZxFk-25" vertex="1" connectable="0">
          <mxGeometry x="-0.3711" relative="1" as="geometry">
            <mxPoint x="-22" as="offset" />
          </mxGeometry>
        </mxCell>
        <mxCell id="ZzBclUYQci2NFeaBZxFk-26" value="" style="edgeStyle=elbowEdgeStyle;elbow=vertical;endArrow=classic;html=1;curved=0;rounded=1;endSize=8;startSize=8;exitX=0.5;exitY=1;exitDx=0;exitDy=0;entryX=0.5;entryY=0;entryDx=0;entryDy=0;strokeColor=#A6A6A6;strokeWidth=2;" parent="1" source="ZzBclUYQci2NFeaBZxFk-1" target="ZzBclUYQci2NFeaBZxFk-17" edge="1">
          <mxGeometry width="50" height="50" relative="1" as="geometry">
            <mxPoint x="210" y="130" as="sourcePoint" />
            <mxPoint x="130" y="170" as="targetPoint" />
          </mxGeometry>
        </mxCell>
        <mxCell id="ZzBclUYQci2NFeaBZxFk-37" value="&lt;font style=&quot;font-size: 19px;&quot; face=&quot;Courier New&quot;&gt;No&lt;/font&gt;" style="edgeLabel;html=1;align=center;verticalAlign=middle;resizable=0;points=[];fontColor=#A6A6A6;" parent="ZzBclUYQci2NFeaBZxFk-26" vertex="1" connectable="0">
          <mxGeometry x="0.4737" y="-1" relative="1" as="geometry">
            <mxPoint x="-29" as="offset" />
          </mxGeometry>
        </mxCell>
        <mxCell id="ZzBclUYQci2NFeaBZxFk-27" value="" style="edgeStyle=elbowEdgeStyle;elbow=vertical;endArrow=classic;html=1;curved=0;rounded=1;endSize=8;startSize=8;exitX=0.5;exitY=1;exitDx=0;exitDy=0;entryX=0.5;entryY=0;entryDx=0;entryDy=0;strokeColor=#A6A6A6;strokeWidth=2;" parent="1" source="ZzBclUYQci2NFeaBZxFk-17" target="ZzBclUYQci2NFeaBZxFk-16" edge="1">
          <mxGeometry width="50" height="50" relative="1" as="geometry">
            <mxPoint x="210" y="130" as="sourcePoint" />
            <mxPoint x="290" y="170" as="targetPoint" />
          </mxGeometry>
        </mxCell>
        <mxCell id="ZzBclUYQci2NFeaBZxFk-38" value="&lt;font style=&quot;font-size: 20px;&quot; face=&quot;Courier New&quot;&gt;Yes&lt;/font&gt;" style="edgeLabel;html=1;align=center;verticalAlign=middle;resizable=0;points=[];fontColor=#A6A6A6;" parent="ZzBclUYQci2NFeaBZxFk-27" vertex="1" connectable="0">
          <mxGeometry x="-0.2348" y="1" relative="1" as="geometry">
            <mxPoint x="-14" as="offset" />
          </mxGeometry>
        </mxCell>
        <mxCell id="ZzBclUYQci2NFeaBZxFk-28" value="" style="edgeStyle=elbowEdgeStyle;elbow=vertical;endArrow=classic;html=1;curved=0;rounded=1;endSize=8;startSize=8;exitX=0.5;exitY=1;exitDx=0;exitDy=0;entryX=0.5;entryY=0;entryDx=0;entryDy=0;strokeColor=#A6A6A6;strokeWidth=2;" parent="1" source="ZzBclUYQci2NFeaBZxFk-17" target="ZzBclUYQci2NFeaBZxFk-18" edge="1">
          <mxGeometry width="50" height="50" relative="1" as="geometry">
            <mxPoint x="220" y="140" as="sourcePoint" />
            <mxPoint x="300" y="180" as="targetPoint" />
          </mxGeometry>
        </mxCell>
        <mxCell id="ZzBclUYQci2NFeaBZxFk-39" value="&lt;font style=&quot;font-size: 20px;&quot; face=&quot;Courier New&quot;&gt;No&lt;/font&gt;" style="edgeLabel;html=1;align=center;verticalAlign=middle;resizable=0;points=[];fontColor=#A6A6A6;" parent="ZzBclUYQci2NFeaBZxFk-28" vertex="1" connectable="0">
          <mxGeometry x="-0.1045" y="-2" relative="1" as="geometry">
            <mxPoint x="6" as="offset" />
          </mxGeometry>
        </mxCell>
        <mxCell id="ZzBclUYQci2NFeaBZxFk-29" value="" style="edgeStyle=elbowEdgeStyle;elbow=vertical;endArrow=classic;html=1;curved=0;rounded=1;endSize=8;startSize=8;exitX=0.5;exitY=1;exitDx=0;exitDy=0;entryX=0.5;entryY=0;entryDx=0;entryDy=0;strokeColor=#A6A6A6;strokeWidth=2;" parent="1" source="ZzBclUYQci2NFeaBZxFk-18" target="ZzBclUYQci2NFeaBZxFk-19" edge="1">
          <mxGeometry width="50" height="50" relative="1" as="geometry">
            <mxPoint x="350" y="360" as="sourcePoint" />
            <mxPoint x="270" y="400" as="targetPoint" />
          </mxGeometry>
        </mxCell>
        <mxCell id="ZzBclUYQci2NFeaBZxFk-40" value="&lt;font face=&quot;Courier New&quot; style=&quot;font-size: 20px;&quot;&gt;Yes&lt;/font&gt;" style="edgeLabel;html=1;align=center;verticalAlign=middle;resizable=0;points=[];fontColor=#A6A6A6;" parent="ZzBclUYQci2NFeaBZxFk-29" vertex="1" connectable="0">
          <mxGeometry x="-0.0724" y="3" relative="1" as="geometry">
            <mxPoint x="24" as="offset" />
          </mxGeometry>
        </mxCell>
        <mxCell id="ZzBclUYQci2NFeaBZxFk-30" value="" style="edgeStyle=elbowEdgeStyle;elbow=vertical;endArrow=classic;html=1;curved=0;rounded=1;endSize=8;startSize=8;exitX=0.5;exitY=1;exitDx=0;exitDy=0;entryX=0.5;entryY=0;entryDx=0;entryDy=0;strokeColor=#A6A6A6;strokeWidth=2;" parent="1" source="ZzBclUYQci2NFeaBZxFk-18" target="ZzBclUYQci2NFeaBZxFk-20" edge="1">
          <mxGeometry width="50" height="50" relative="1" as="geometry">
            <mxPoint x="300" y="260" as="sourcePoint" />
            <mxPoint x="220" y="300" as="targetPoint" />
          </mxGeometry>
        </mxCell>
        <mxCell id="ZzBclUYQci2NFeaBZxFk-41" value="&lt;font face=&quot;Courier New&quot; style=&quot;font-size: 20px;&quot;&gt;No&lt;/font&gt;" style="edgeLabel;html=1;align=center;verticalAlign=middle;resizable=0;points=[];fontColor=#A6A6A6;" parent="ZzBclUYQci2NFeaBZxFk-30" vertex="1" connectable="0">
          <mxGeometry x="-0.1" y="-1" relative="1" as="geometry">
            <mxPoint x="-21" as="offset" />
          </mxGeometry>
        </mxCell>
        <mxCell id="ZzBclUYQci2NFeaBZxFk-31" value="" style="edgeStyle=elbowEdgeStyle;elbow=vertical;endArrow=classic;html=1;curved=0;rounded=1;endSize=8;startSize=8;exitX=0.5;exitY=1;exitDx=0;exitDy=0;entryX=0.5;entryY=0;entryDx=0;entryDy=0;strokeColor=#A6A6A6;strokeWidth=2;" parent="1" source="ZzBclUYQci2NFeaBZxFk-20" target="ZzBclUYQci2NFeaBZxFk-23" edge="1">
          <mxGeometry width="50" height="50" relative="1" as="geometry">
            <mxPoint x="510" y="480" as="sourcePoint" />
            <mxPoint x="650" y="520" as="targetPoint" />
          </mxGeometry>
        </mxCell>
        <mxCell id="ZzBclUYQci2NFeaBZxFk-44" value="&lt;font style=&quot;font-size: 20px;&quot; face=&quot;Courier New&quot;&gt;Yes&lt;/font&gt;" style="edgeLabel;html=1;align=center;verticalAlign=middle;resizable=0;points=[];fontColor=#A6A6A6;" parent="ZzBclUYQci2NFeaBZxFk-31" vertex="1" connectable="0">
          <mxGeometry x="0.2697" y="1" relative="1" as="geometry">
            <mxPoint x="14" y="-1" as="offset" />
          </mxGeometry>
        </mxCell>
        <mxCell id="ZzBclUYQci2NFeaBZxFk-32" value="" style="edgeStyle=elbowEdgeStyle;elbow=vertical;endArrow=classic;html=1;curved=0;rounded=1;endSize=8;startSize=8;exitX=0.5;exitY=1;exitDx=0;exitDy=0;entryX=0.5;entryY=0;entryDx=0;entryDy=0;strokeColor=#A6A6A6;strokeWidth=2;" parent="1" source="ZzBclUYQci2NFeaBZxFk-20" target="ZzBclUYQci2NFeaBZxFk-24" edge="1">
          <mxGeometry width="50" height="50" relative="1" as="geometry">
            <mxPoint x="510" y="490" as="sourcePoint" />
            <mxPoint x="570" y="530" as="targetPoint" />
            <Array as="points">
              <mxPoint x="540" y="500" />
            </Array>
          </mxGeometry>
        </mxCell>
        <mxCell id="ZzBclUYQci2NFeaBZxFk-45" value="&lt;font face=&quot;Courier New&quot; style=&quot;font-size: 20px;&quot;&gt;No&lt;/font&gt;" style="edgeLabel;html=1;align=center;verticalAlign=middle;resizable=0;points=[];fontColor=#A6A6A6;" parent="ZzBclUYQci2NFeaBZxFk-32" vertex="1" connectable="0">
          <mxGeometry x="-0.2006" y="1" relative="1" as="geometry">
            <mxPoint x="10" as="offset" />
          </mxGeometry>
        </mxCell>
        <mxCell id="ZzBclUYQci2NFeaBZxFk-33" value="" style="edgeStyle=elbowEdgeStyle;elbow=vertical;endArrow=classic;html=1;curved=0;rounded=1;endSize=8;startSize=8;entryX=0.5;entryY=0;entryDx=0;entryDy=0;exitX=0.5;exitY=1;exitDx=0;exitDy=0;strokeColor=#A6A6A6;strokeWidth=2;" parent="1" source="ZzBclUYQci2NFeaBZxFk-19" target="ZzBclUYQci2NFeaBZxFk-21" edge="1">
          <mxGeometry width="50" height="50" relative="1" as="geometry">
            <mxPoint x="220" y="490" as="sourcePoint" />
            <mxPoint x="150" y="520" as="targetPoint" />
          </mxGeometry>
        </mxCell>
        <mxCell id="ZzBclUYQci2NFeaBZxFk-42" value="&lt;font face=&quot;Courier New&quot; style=&quot;font-size: 20px;&quot;&gt;Yes&lt;/font&gt;" style="edgeLabel;html=1;align=center;verticalAlign=middle;resizable=0;points=[];fontColor=#A6A6A6;" parent="ZzBclUYQci2NFeaBZxFk-33" vertex="1" connectable="0">
          <mxGeometry x="-0.203" y="-1" relative="1" as="geometry">
            <mxPoint x="-10" as="offset" />
          </mxGeometry>
        </mxCell>
        <mxCell id="ZzBclUYQci2NFeaBZxFk-34" value="" style="edgeStyle=elbowEdgeStyle;elbow=vertical;endArrow=classic;html=1;curved=0;rounded=1;endSize=8;startSize=8;entryX=0.5;entryY=0;entryDx=0;entryDy=0;exitX=0.5;exitY=1;exitDx=0;exitDy=0;strokeColor=#A6A6A6;strokeWidth=2;" parent="1" source="ZzBclUYQci2NFeaBZxFk-19" target="ZzBclUYQci2NFeaBZxFk-22" edge="1">
          <mxGeometry width="50" height="50" relative="1" as="geometry">
            <mxPoint x="230" y="490" as="sourcePoint" />
            <mxPoint x="170" y="530" as="targetPoint" />
          </mxGeometry>
        </mxCell>
        <mxCell id="ZzBclUYQci2NFeaBZxFk-43" value="&lt;font style=&quot;font-size: 20px;&quot; face=&quot;Courier New&quot;&gt;No&lt;/font&gt;" style="edgeLabel;html=1;align=center;verticalAlign=middle;resizable=0;points=[];fontColor=#A6A6A6;" parent="ZzBclUYQci2NFeaBZxFk-34" vertex="1" connectable="0">
          <mxGeometry x="0.3048" y="-1" relative="1" as="geometry">
            <mxPoint x="-16" as="offset" />
          </mxGeometry>
        </mxCell>
      </root>
    </mxGraphModel>
  </diagram>
</mxfile>
